<svg width="20" height="15" viewBox="0 0 20 15" fill="none" xmlns="http://www.w3.org/2000/svg">
<g id="mdi:twitter">
<path id="Vector" d="M18.9353 1.76471C18.2558 2.07353 17.5235 2.27647 16.7647 2.37353C17.5411 1.90588 18.1411 1.16471 18.4235 0.273529C17.6911 0.714706 16.8794 1.02353 16.0235 1.2C15.3264 0.441177 14.347 0 13.2353 0C11.1617 0 9.46762 1.69412 9.46762 3.78529C9.46762 4.08529 9.50291 4.37647 9.56468 4.65C6.4235 4.49118 3.62644 2.98235 1.76468 0.697059C1.43821 1.25294 1.25291 1.90588 1.25291 2.59412C1.25291 3.90882 1.91468 5.07353 2.93821 5.73529C2.31173 5.73529 1.72938 5.55882 1.21762 5.29412V5.32059C1.21762 7.15588 2.5235 8.69118 4.25291 9.03529C3.69767 9.18724 3.11476 9.20839 2.54997 9.09706C2.78962 9.84925 3.25897 10.5074 3.89204 10.9791C4.52511 11.4507 5.29007 11.7121 6.07938 11.7265C4.74141 12.7857 3.08291 13.3582 1.37644 13.35C1.07644 13.35 0.77644 13.3324 0.47644 13.2971C2.15291 14.3735 4.14703 15 6.28232 15C13.2353 15 17.0559 9.22941 17.0559 4.22647C17.0559 4.05882 17.0559 3.9 17.047 3.73235C17.7882 3.20294 18.4235 2.53235 18.9353 1.76471Z" fill="#0047FF"/>
</g>
</svg>
