<svg width="14" height="15" viewBox="0 0 14 15" fill="none" xmlns="http://www.w3.org/2000/svg">
<g id="ic:baseline-tiktok" clip-path="url(#clip0_10_8)">
<path id="Vector" d="M10.5 2.35C9.93038 1.69969 9.61646 0.864527 9.6167 0H7.0417V10.3333C7.02183 10.8925 6.78575 11.4222 6.38317 11.8108C5.98058 12.1994 5.4429 12.4166 4.88336 12.4167C3.70003 12.4167 2.7167 11.45 2.7167 10.25C2.7167 8.81667 4.10003 7.74167 5.52503 8.18333V5.55C2.65003 5.16667 0.133362 7.4 0.133362 10.25C0.133362 13.025 2.43336 15 4.87503 15C7.4917 15 9.6167 12.875 9.6167 10.25V5.00833C10.6609 5.75821 11.9145 6.16054 13.2 6.15833V3.58333C13.2 3.58333 11.6334 3.65833 10.5 2.35Z" fill="#0047FF"/>
</g>
<defs>
<clipPath id="clip0_10_8">
<rect width="13.3333" height="15" fill="white"/>
</clipPath>
</defs>
</svg>
