<svg width="10" height="10" viewBox="0 0 10 10" fill="none" xmlns="http://www.w3.org/2000/svg">
<g id="Group">
<path id="Vector" fill-rule="evenodd" clip-rule="evenodd" d="M3.18837 1.82584C3.19921 1.82292 3.32296 1.7975 3.54712 2.07709C3.76129 2.34417 3.99129 2.81 4.17671 3.50209C4.31296 4.01042 4.40087 4.55 4.43337 5.03125C4.44067 5.13994 4.49024 5.24146 4.57147 5.31404C4.65271 5.38663 4.75913 5.42451 4.86796 5.41959C4.95597 5.41565 5.04411 5.41565 5.13212 5.41959C5.24088 5.42452 5.34725 5.38669 5.42847 5.31419C5.50969 5.24169 5.55931 5.14029 5.56671 5.03167C5.59921 4.55 5.68712 4.01 5.82337 3.50209C6.00879 2.81 6.23879 2.34417 6.45254 2.07709C6.67754 1.7975 6.80087 1.82292 6.81171 1.82584C6.82254 1.82834 6.94212 1.86834 6.99671 2.22292C7.04837 2.56125 7.01504 3.07959 6.82963 3.77167C6.69051 4.28883 6.501 4.7911 6.26379 5.27125C6.21798 5.36288 6.20753 5.46816 6.23443 5.56701C6.26133 5.66585 6.3237 5.75132 6.40962 5.80709C6.85337 6.09542 7.08337 6.48542 7.08337 6.875C7.08337 7.23209 6.89129 7.5875 6.51796 7.8675C6.14421 8.1475 5.60837 8.33334 5.00004 8.33334C4.39129 8.33334 3.85587 8.14792 3.48212 7.8675C3.10879 7.5875 2.91671 7.23209 2.91671 6.875C2.91671 6.48542 3.14671 6.09542 3.59046 5.80709C3.67638 5.75132 3.73875 5.66585 3.76565 5.56701C3.79255 5.46816 3.7821 5.36288 3.73629 5.27125C3.49905 4.79097 3.30953 4.28856 3.17046 3.77125C2.98504 3.07959 2.95171 2.56125 3.00379 2.22292C3.05796 1.86875 3.17754 1.82834 3.18837 1.82584ZM4.98171 3.28625C4.78004 2.53334 4.51087 1.94667 4.19754 1.55584C3.89421 1.17792 3.46212 0.889586 2.97254 1.02084C2.48337 1.15167 2.25337 1.6175 2.17962 2.09667C2.10379 2.59167 2.16379 3.23417 2.36587 3.98709C2.48952 4.446 2.64875 4.89458 2.84212 5.32875C2.38671 5.72125 2.08337 6.25834 2.08337 6.875C2.08337 7.55334 2.45087 8.13584 2.98212 8.53417C3.51337 8.9325 4.22796 9.16667 5.00004 9.16667C5.77171 9.16667 6.48671 8.9325 7.01796 8.53417C7.54921 8.13584 7.91671 7.55334 7.91671 6.875C7.91671 6.2575 7.61337 5.72125 7.15837 5.32917C7.35161 4.89499 7.5107 4.44641 7.63421 3.9875C7.83629 3.23459 7.89629 2.59167 7.82046 2.09667C7.74671 1.6175 7.51671 1.15167 7.02754 1.02084C6.53796 0.889586 6.10587 1.17792 5.80254 1.55584C5.48921 1.94667 5.22004 2.53334 5.01837 3.28625L5.00004 3.35584C4.99402 3.33262 4.98791 3.30942 4.98171 3.28625ZM4.40962 7.08042C4.37692 6.98624 4.36722 6.88561 4.38133 6.78693C4.39545 6.68824 4.43296 6.59436 4.49075 6.51312C4.54853 6.43189 4.62491 6.36565 4.71351 6.31995C4.8021 6.27425 4.90035 6.2504 5.00004 6.2504C5.09973 6.2504 5.19798 6.27425 5.28657 6.31995C5.37517 6.36565 5.45155 6.43189 5.50934 6.51312C5.56712 6.59436 5.60464 6.68824 5.61875 6.78693C5.63286 6.88561 5.62316 6.98624 5.59046 7.08042C5.60189 7.08234 5.61345 7.08332 5.62504 7.08334C5.73555 7.08334 5.84153 7.12723 5.91967 7.20537C5.99781 7.28351 6.04171 7.3895 6.04171 7.5C6.04171 7.61051 5.99781 7.71649 5.91967 7.79463C5.84153 7.87277 5.73555 7.91667 5.62504 7.91667C5.39961 7.91697 5.18021 7.84384 5.00004 7.70834C4.81987 7.84384 4.60048 7.91697 4.37504 7.91667C4.26453 7.91667 4.15855 7.87277 4.08041 7.79463C4.00227 7.71649 3.95837 7.61051 3.95837 7.5C3.95837 7.3895 4.00227 7.28351 4.08041 7.20537C4.15855 7.12723 4.26453 7.08334 4.37504 7.08334C4.38663 7.08332 4.3982 7.08234 4.40962 7.08042Z" fill="white"/>
</g>
</svg>
