<svg width="17" height="17" viewBox="0 0 17 17" fill="none" xmlns="http://www.w3.org/2000/svg">
<g id="mingcute:rabbit-line" clip-path="url(#clip0_10_22)">
<g id="Group">
<path id="Vector" fill-rule="evenodd" clip-rule="evenodd" d="M5.42019 3.10391C5.4386 3.09896 5.64898 3.05575 6.03006 3.53104C6.39415 3.98508 6.78515 4.777 7.10035 5.95354C7.33198 6.81771 7.48144 7.735 7.53669 8.55312C7.54909 8.7379 7.63337 8.91047 7.77146 9.03387C7.90955 9.15726 8.09048 9.22167 8.27548 9.21329C8.4251 9.20659 8.57494 9.20659 8.72456 9.21329C8.90945 9.22168 9.09028 9.15737 9.22835 9.03412C9.36642 8.91087 9.45077 8.73848 9.46335 8.55383C9.5186 7.735 9.66806 6.817 9.89969 5.95354C10.2149 4.777 10.6059 3.98508 10.9693 3.53104C11.3518 3.05575 11.5614 3.09896 11.5799 3.10391C11.5983 3.10816 11.8016 3.17616 11.8944 3.77896C11.9822 4.35412 11.9255 5.23529 11.6103 6.41183C11.3738 7.29101 11.0516 8.14487 10.6484 8.96112C10.5705 9.11688 10.5528 9.29587 10.5985 9.4639C10.6442 9.63193 10.7502 9.77723 10.8963 9.87204C11.6507 10.3622 12.0417 11.0252 12.0417 11.6875C12.0417 12.2945 11.7151 12.8987 11.0805 13.3747C10.4451 13.8507 9.53419 14.1667 8.50002 14.1667C7.46515 14.1667 6.55494 13.8515 5.91956 13.3747C5.2849 12.8987 4.95835 12.2945 4.95835 11.6875C4.95835 11.0252 5.34935 10.3622 6.10373 9.87204C6.2498 9.77723 6.35583 9.63193 6.40156 9.4639C6.44729 9.29587 6.42952 9.11688 6.35165 8.96112C5.94833 8.14465 5.62615 7.29055 5.38973 6.41112C5.07452 5.23529 5.01785 4.35412 5.1064 3.77896C5.19848 3.17687 5.40177 3.10816 5.42019 3.10391ZM8.46885 5.58662C8.12602 4.30666 7.66844 3.30933 7.13577 2.64491C6.6201 2.00246 5.88556 1.51229 5.05327 1.73541C4.22169 1.95783 3.83069 2.74975 3.70531 3.56433C3.5764 4.40583 3.6784 5.49808 4.02194 6.77804C4.23214 7.5582 4.50283 8.32079 4.83156 9.05887C4.05735 9.72612 3.54169 10.6392 3.54169 11.6875C3.54169 12.8407 4.16644 13.8309 5.06956 14.5081C5.97269 15.1852 7.18748 15.5833 8.50002 15.5833C9.81185 15.5833 11.0274 15.1852 11.9305 14.5081C12.8336 13.8309 13.4584 12.8407 13.4584 11.6875C13.4584 10.6377 12.9427 9.72612 12.1692 9.05958C12.4977 8.32148 12.7681 7.55889 12.9781 6.77875C13.3216 5.49879 13.4236 4.40583 13.2947 3.56433C13.1694 2.74975 12.7784 1.95783 11.9468 1.73541C11.1145 1.51229 10.3799 2.00246 9.86427 2.64491C9.3316 3.30933 8.87402 4.30666 8.53119 5.58662L8.50002 5.70491C8.48979 5.66544 8.4794 5.62601 8.46885 5.58662ZM7.49631 12.0367C7.44072 11.8766 7.42423 11.7055 7.44822 11.5378C7.47221 11.37 7.53598 11.2104 7.63422 11.0723C7.73245 10.9342 7.8623 10.8216 8.01291 10.7439C8.16353 10.6662 8.33055 10.6257 8.50002 10.6257C8.6695 10.6257 8.83651 10.6662 8.98713 10.7439C9.13774 10.8216 9.26759 10.9342 9.36582 11.0723C9.46406 11.2104 9.52783 11.37 9.55182 11.5378C9.57581 11.7055 9.55932 11.8766 9.50373 12.0367C9.52316 12.04 9.54282 12.0416 9.56252 12.0417C9.75038 12.0417 9.93055 12.1163 10.0634 12.2491C10.1962 12.382 10.2709 12.5621 10.2709 12.75C10.2709 12.9379 10.1962 13.118 10.0634 13.2509C9.93055 13.3837 9.75038 13.4583 9.56252 13.4583C9.17928 13.4588 8.8063 13.3345 8.50002 13.1042C8.19374 13.3345 7.82076 13.4588 7.43752 13.4583C7.24966 13.4583 7.06949 13.3837 6.93665 13.2509C6.80382 13.118 6.72919 12.9379 6.72919 12.75C6.72919 12.5621 6.80382 12.382 6.93665 12.2491C7.06949 12.1163 7.24966 12.0417 7.43752 12.0417C7.45722 12.0416 7.47689 12.04 7.49631 12.0367Z" fill="#FF0000"/>
</g>
</g>
<defs>
<clipPath id="clip0_10_22">
<rect width="17" height="17" fill="white"/>
</clipPath>
</defs>
</svg>
